<?xml version="1.0" encoding="iso-8859-1"?>
<!-- Generator: Adobe Illustrator 15.0.0, SVG Export Plug-In . SVG Version: 6.00 Build 0)  -->
<!DOCTYPE svg PUBLIC "-//W3C//DTD SVG 1.1//EN" "http://www.w3.org/Graphics/SVG/1.1/DTD/svg11.dtd">
<svg version="1.1" id="Ebene_1" xmlns="http://www.w3.org/2000/svg" xmlns:xlink="http://www.w3.org/1999/xlink" x="0px" y="0px"
	 width="564.66px" height="566.93px" viewBox="0 0 564.66 566.93" style="enable-background:new 0 0 564.66 566.93;"
	 xml:space="preserve">
<path style="fill:#E30613;" d="M564.816-0.376v225.144c0,71.208-28.944,133.56-72.433,186.408
	c-55.008,66.816-133.272,118.297-204.84,152.928l-4.968,2.448l-4.968-2.448c-71.568-34.631-149.832-86.111-204.84-152.928
	C29.28,358.328,0.336,295.977,0.336,224.768V-0.376H564.816z"/>
<path style="fill:#FFFFFF;" d="M541.775,22.736H23.376v202.032c0,65.304,26.856,122.832,67.176,171.792
	c51.264,62.352,124.344,110.951,192.024,144.359c67.68-33.408,140.76-82.008,192.023-144.359
	c40.32-48.961,67.176-106.488,67.176-171.792V22.736z"/>
<path d="M541.768,74.396c-54.795,4.321-101.463,10.441-146.264,28.232c-43.285,17.069-82.822,42.491-132.576,78.42
	c-16.919,13.104-36.428,26.421-55.144,37.435c-43.829,25.694-87.526,34.982-133.329,53.417
	c-14.388,5.827-28.342,11.869-41.938,17.983c8.907,31.304,23.898,60.401,43.052,87.182c17.272-8.492,34.972-16.405,52.162-21.008
	c32.265-8.643,65.392-21.822,97.796-38.24c32.838-16.635,65.099-36.799,94.84-59.123c37.651-28.22,73.139-49.599,111.215-64.715
	c33.034-13.099,68.661-21.52,110.192-25.767V74.395L541.768,74.396z"/>
<polygon points="49.368,151.184 49.368,44.192 67.944,44.192 67.944,88.904 91.056,44.192 112.152,44.192 86.448,88.616 
	113.808,151.184 92.928,151.184 74.64,106.976 67.944,118.784 67.944,151.184 "/>
<path style="fill:#E30613;" d="M382.152,246.26c-50.616,0-91.944,41.2-91.944,91.908c0,50.636,41.328,91.908,91.944,91.908
	c50.615,0,91.871-41.272,91.871-91.908C474.023,287.46,432.768,246.26,382.152,246.26z"/>
<path style="fill:#FFFFFF;" d="M382.116,422.984c-46.728,0-84.815-38.104-84.815-84.852c0-46.748,38.088-84.781,84.815-84.781
	s84.815,38.033,84.815,84.781C466.932,384.88,428.844,422.984,382.116,422.984z"/>
<path style="fill:#E30613;" d="M427.943,306.561c-5.976,0-11.664,1.728-16.416,4.68c1.369-3.6,2.16-7.488,2.16-11.52
	c0-17.281-14.184-31.465-31.535-31.465c-17.424,0-31.608,14.184-31.608,31.465c0,4.031,0.792,7.92,2.231,11.52
	c-4.823-2.952-10.439-4.68-16.487-4.68c-17.353,0-31.536,14.184-31.536,31.607c0,17.352,14.184,31.536,31.536,31.536
	c6.048,0,11.664-1.728,16.487-4.681c-1.439,3.601-2.231,7.488-2.231,11.521c0,17.353,14.185,31.536,31.608,31.536
	c17.352,0,31.535-14.184,31.535-31.536c0-4.032-0.791-7.92-2.16-11.521c4.752,2.953,10.44,4.681,16.416,4.681
	c17.425,0,31.537-14.185,31.537-31.536C459.48,320.744,445.368,306.561,427.943,306.561z"/>
<polygon points="207.48,151.184 186.528,44.192 205.104,44.192 219,129.584 231.6,44.192 249.96,44.192 230.376,151.184 "/>
<path d="M138.216,116.336v4.176c0,6.552,0.792,11.016,2.304,13.392c1.512,2.376,4.104,3.6,7.848,3.6c3.888,0,6.84-1.08,8.856-3.24
	c2.016-2.088,3.024-5.256,3.024-9.432c0-3.168-0.72-5.904-2.088-8.208c-1.44-2.304-4.464-5.256-9.144-8.856l-9.432-7.2
	c-8.064-6.12-13.248-11.16-15.48-15.12c-2.16-4.032-3.24-9-3.24-15.048c0-8.928,2.376-15.984,7.344-21.096
	c4.896-5.112,11.664-7.632,20.304-7.632c9.072,0,16.056,2.664,20.952,8.136c4.896,5.4,7.272,13.176,7.272,23.328
	c0,1.008,0,1.8,0,2.304c0,0.576-0.072,1.08-0.072,1.512H159.24v-2.88c0-5.76-0.864-9.937-2.664-12.384
	c-1.728-2.52-4.608-3.744-8.568-3.744c-2.952,0-5.328,0.936-6.984,2.808c-1.656,1.872-2.52,4.464-2.52,7.776
	c0,4.536,3.744,9.504,11.304,14.904l0.216,0.144l10.08,7.488c7.2,5.184,12.096,10.08,14.688,14.688
	c2.52,4.608,3.816,10.44,3.816,17.568c0,9.72-2.52,17.208-7.704,22.536c-5.112,5.256-12.384,7.92-21.888,7.92
	c-9.936,0-17.28-2.808-22.104-8.352c-4.896-5.544-7.272-14.04-7.272-25.416c0-0.864,0-2.016,0.072-3.672H138.216z"/>
<path style="fill:#FFFFFF;" d="M117.696,341.191l6.192-1.871c3.888-1.152,6.336-2.952,7.344-5.4c1.008-2.376,0.792-5.977-0.648-10.8
	c-1.512-4.896-3.384-8.063-5.688-9.433c-2.232-1.367-5.76-1.367-10.512,0.072l-4.536,1.368L117.696,341.191L117.696,341.191z
	 M106.608,304.184l5.04-1.512c3.744-1.152,6.12-2.808,7.056-4.896c0.936-2.088,0.72-5.399-0.576-9.863
	c-1.224-3.96-2.736-6.48-4.68-7.488c-1.872-1.008-4.824-0.936-8.856,0.288l-4.68,1.368L106.608,304.184L106.608,304.184z
	 M106.464,357.248l-24.48-81.864l24.192-7.272c6.984-2.088,12.6-2.016,16.992,0.216c4.32,2.232,7.56,6.768,9.576,13.536
	c1.584,5.327,2.016,9.792,1.296,13.247c-0.792,3.529-2.736,6.049-5.904,7.633c3.96-0.576,7.488,0.432,10.584,3.096
	c3.096,2.664,5.4,6.624,7.056,12.024c2.592,8.712,2.736,15.624,0.36,20.808c-2.376,5.184-7.344,8.855-14.976,11.16L106.464,357.248z
	"/>
<path style="fill:#FFFFFF;" d="M171.48,298.208l11.88-5.04l-19.872-30.24L171.48,298.208L171.48,298.208z M164.712,338.168
	l-16.2-85.464l18.72-7.92l50.112,71.136l-15.048,6.336l-12.024-18.145l-15.984,6.769l4.68,21.24L164.712,338.168z"/>
<path style="fill:#FFFFFF;" d="M183.216,237.296l13.608-7.632l28.584,49.896c3.312,5.616,6.192,9.072,8.712,10.295
	c2.592,1.297,5.616,0.937,9.144-1.008c3.456-1.943,5.256-4.32,5.472-7.056c0.144-2.808-1.44-7.128-4.752-12.888l-28.44-49.68
	l13.392-7.56l29.304,51.048c2.808,4.968,4.608,8.784,5.4,11.376c0.792,2.592,1.008,5.112,0.648,7.56
	c-0.432,3.672-1.944,7.056-4.392,10.152c-2.52,3.097-5.976,5.904-10.44,8.353c-8.352,4.752-15.264,6.191-20.808,4.464
	s-10.944-7.2-16.2-16.345L183.216,237.296z"/>
<polygon style="fill:#FFFFFF;" points="285.96,277.544 236.496,207.488 249.6,198.416 302.088,235.136 267.096,186.32 
	279.192,178.04 328.656,248.096 315.624,257.096 262.992,220.376 297.984,269.264 "/>
<path style="fill:#FFFFFF;" d="M330.527,203.168l11.089-7.128l-25.345-26.496L330.527,203.168L330.527,203.168z M330.6,243.92
	l-31.32-81.792l17.568-11.232l63.145,61.56l-14.112,9l-15.336-15.84l-15.048,9.648l8.496,20.16L330.6,243.92z"/>
<polygon style="fill:#FFFFFF;" points="389.208,207.344 356.16,143.84 340.104,151.832 333.624,139.304 379.632,116.48 
	386.184,129.008 370.128,136.928 403.104,200.432 "/>
<path style="fill:#FFFFFF;" d="M421.68,154.856l11.881-4.464l-18.793-31.752L421.68,154.856L421.68,154.856z M413.977,194.888
	l-13.752-87.408l18.719-6.984l47.593,74.736l-14.976,5.616l-11.377-19.008l-16.056,5.976l4.104,21.744L413.977,194.888z"/>
<polygon style="fill:#FFFFFF;" points="472.872,173.648 455.305,89.12 470.712,86.312 485.328,156.44 513.12,151.4 516.072,165.8 
	"/>
</svg>
